<svg xmlns="http://www.w3.org/2000/svg" xmlns:xlink="http://www.w3.org/1999/xlink" width="500" zoomAndPan="magnify" viewBox="0 0 375 374.999991" height="500" preserveAspectRatio="xMidYMid meet" version="1.0"><defs><clipPath id="c9cd206296"><path d="M 22.363281 35.160156 L 352.363281 35.160156 L 352.363281 263 L 22.363281 263 Z M 22.363281 35.160156 " clip-rule="nonzero"/></clipPath><clipPath id="5ee224fca5"><path d="M 22.363281 86 L 352.363281 86 L 352.363281 98 L 22.363281 98 Z M 22.363281 86 " clip-rule="nonzero"/></clipPath><clipPath id="4a69fefd6c"><path d="M 213 61 L 352.363281 61 L 352.363281 72 L 213 72 Z M 213 61 " clip-rule="nonzero"/></clipPath><clipPath id="12951427f7"><path d="M 48 308 L 312 308 L 312 339.660156 L 48 339.660156 Z M 48 308 " clip-rule="nonzero"/></clipPath></defs><path fill="#000000" d="M 197.675781 262.195312 L 166.738281 262.195312 C 163.890625 262.195312 161.582031 259.886719 161.582031 257.035156 C 161.582031 254.1875 163.890625 251.878906 166.738281 251.878906 L 197.675781 251.878906 C 200.523438 251.878906 202.832031 254.1875 202.832031 257.035156 C 202.832031 259.886719 200.523438 262.195312 197.675781 262.195312 Z M 197.675781 262.195312 " fill-opacity="1" fill-rule="nonzero"/><g clip-path="url(#c9cd206296)"><path fill="#000000" d="M 347.207031 262.195312 L 290.488281 262.195312 C 287.640625 262.195312 285.332031 259.886719 285.332031 257.035156 C 285.332031 254.1875 287.640625 251.878906 290.488281 251.878906 L 342.050781 251.878906 L 342.050781 45.582031 L 32.675781 45.582031 L 32.675781 251.878906 L 73.925781 251.878906 C 76.773438 251.878906 79.082031 254.1875 79.082031 257.035156 C 79.082031 259.886719 76.773438 262.195312 73.925781 262.195312 L 27.519531 262.195312 C 24.671875 262.195312 22.363281 259.886719 22.363281 257.035156 L 22.363281 40.421875 C 22.363281 37.574219 24.671875 35.265625 27.519531 35.265625 L 347.207031 35.265625 C 350.054688 35.265625 352.363281 37.574219 352.363281 40.421875 L 352.363281 257.035156 C 352.363281 259.886719 350.054688 262.195312 347.207031 262.195312 Z M 347.207031 262.195312 " fill-opacity="1" fill-rule="nonzero"/></g><path fill="#000000" d="M 259.550781 262.195312 L 228.613281 262.195312 C 225.765625 262.195312 223.457031 259.886719 223.457031 257.035156 C 223.457031 254.1875 225.765625 251.878906 228.613281 251.878906 L 259.550781 251.878906 C 262.398438 251.878906 264.707031 254.1875 264.707031 257.035156 C 264.707031 259.886719 262.398438 262.195312 259.550781 262.195312 Z M 259.550781 262.195312 " fill-opacity="1" fill-rule="nonzero"/><path fill="#000000" d="M 135.800781 262.195312 L 104.863281 262.195312 C 102.015625 262.195312 99.707031 259.886719 99.707031 257.035156 C 99.707031 254.1875 102.015625 251.878906 104.863281 251.878906 L 135.800781 251.878906 C 138.648438 251.878906 140.957031 254.1875 140.957031 257.035156 C 140.957031 259.886719 138.648438 262.195312 135.800781 262.195312 Z M 135.800781 262.195312 " fill-opacity="1" fill-rule="nonzero"/><g clip-path="url(#5ee224fca5)"><path fill="#000000" d="M 347.207031 97.15625 L 27.519531 97.15625 C 24.671875 97.15625 22.363281 94.847656 22.363281 91.996094 C 22.363281 89.148438 24.671875 86.839844 27.519531 86.839844 L 347.207031 86.839844 C 350.054688 86.839844 352.363281 89.148438 352.363281 91.996094 C 352.363281 94.847656 350.054688 97.15625 347.207031 97.15625 Z M 347.207031 97.15625 " fill-opacity="1" fill-rule="nonzero"/></g><path fill="#000000" d="M 58.457031 71.367188 C 58.117188 71.367188 57.78125 71.335938 57.449219 71.265625 C 57.121094 71.199219 56.796875 71.101562 56.484375 70.972656 C 56.171875 70.84375 55.875 70.683594 55.59375 70.496094 C 55.027344 70.125 54.542969 69.640625 54.171875 69.074219 C 53.984375 68.792969 53.824219 68.496094 53.695312 68.183594 C 53.566406 67.871094 53.46875 67.546875 53.402344 67.214844 C 53.265625 66.550781 53.265625 65.867188 53.402344 65.203125 C 53.46875 64.871094 53.566406 64.550781 53.695312 64.238281 C 53.824219 63.925781 53.984375 63.628906 54.171875 63.347656 C 54.542969 62.777344 55.027344 62.292969 55.59375 61.921875 C 55.875 61.734375 56.171875 61.574219 56.484375 61.445312 C 57.75 60.929688 59.164062 60.929688 60.429688 61.445312 C 60.738281 61.574219 61.039062 61.734375 61.316406 61.921875 C 61.886719 62.292969 62.371094 62.777344 62.742188 63.347656 C 62.929688 63.628906 63.089844 63.925781 63.21875 64.238281 C 63.347656 64.550781 63.445312 64.871094 63.507812 65.203125 C 63.648438 65.867188 63.648438 66.550781 63.507812 67.214844 C 63.445312 67.546875 63.347656 67.871094 63.21875 68.183594 C 63.089844 68.496094 62.929688 68.792969 62.742188 69.074219 C 62.371094 69.640625 61.886719 70.125 61.316406 70.496094 C 61.039062 70.683594 60.738281 70.84375 60.429688 70.972656 C 60.117188 71.101562 59.792969 71.199219 59.460938 71.265625 C 59.132812 71.335938 58.792969 71.367188 58.457031 71.367188 Z M 58.457031 71.367188 " fill-opacity="1" fill-rule="nonzero"/><path fill="#000000" d="M 84.238281 71.367188 C 83.898438 71.367188 83.5625 71.335938 83.230469 71.265625 C 82.902344 71.199219 82.578125 71.101562 82.265625 70.972656 C 81.953125 70.84375 81.65625 70.683594 81.375 70.496094 C 80.808594 70.125 80.324219 69.640625 79.953125 69.074219 C 79.765625 68.792969 79.605469 68.496094 79.476562 68.183594 C 79.347656 67.871094 79.25 67.546875 79.183594 67.214844 C 79.046875 66.550781 79.046875 65.867188 79.183594 65.203125 C 79.25 64.871094 79.347656 64.550781 79.476562 64.238281 C 79.605469 63.925781 79.765625 63.628906 79.953125 63.347656 C 80.324219 62.777344 80.808594 62.292969 81.375 61.921875 C 81.65625 61.734375 81.953125 61.574219 82.265625 61.445312 C 83.53125 60.929688 84.945312 60.929688 86.210938 61.445312 C 86.519531 61.574219 86.820312 61.734375 87.097656 61.921875 C 87.382812 62.109375 87.644531 62.328125 87.886719 62.566406 C 88.125 62.808594 88.339844 63.074219 88.53125 63.355469 C 88.71875 63.632812 88.878906 63.933594 89.007812 64.242188 C 89.136719 64.554688 89.234375 64.878906 89.296875 65.210938 C 89.433594 65.875 89.433594 66.558594 89.296875 67.222656 C 89.234375 67.554688 89.136719 67.878906 89.007812 68.1875 C 88.878906 68.5 88.71875 68.796875 88.53125 69.078125 C 88.160156 69.648438 87.675781 70.132812 87.105469 70.503906 C 86.824219 70.691406 86.527344 70.851562 86.214844 70.980469 C 85.90625 71.109375 85.582031 71.207031 85.25 71.269531 C 84.917969 71.339844 84.578125 71.371094 84.238281 71.367188 Z M 84.238281 71.367188 " fill-opacity="1" fill-rule="nonzero"/><path fill="#000000" d="M 110.019531 71.367188 C 109.679688 71.367188 109.34375 71.335938 109.011719 71.265625 C 108.683594 71.199219 108.359375 71.101562 108.046875 70.972656 C 107.734375 70.84375 107.4375 70.683594 107.15625 70.496094 C 106.589844 70.125 106.105469 69.640625 105.734375 69.074219 C 105.546875 68.792969 105.386719 68.496094 105.257812 68.183594 C 105.128906 67.871094 105.03125 67.546875 104.964844 67.214844 C 104.828125 66.550781 104.828125 65.867188 104.964844 65.203125 C 105.03125 64.871094 105.128906 64.550781 105.257812 64.238281 C 105.386719 63.925781 105.546875 63.628906 105.734375 63.347656 C 106.105469 62.777344 106.589844 62.292969 107.15625 61.921875 C 107.4375 61.734375 107.734375 61.574219 108.046875 61.445312 C 109.3125 60.929688 110.726562 60.929688 111.992188 61.445312 C 112.300781 61.574219 112.601562 61.734375 112.878906 61.921875 C 113.449219 62.292969 113.933594 62.777344 114.304688 63.347656 C 114.492188 63.628906 114.652344 63.925781 114.78125 64.238281 C 114.910156 64.550781 115.007812 64.871094 115.070312 65.203125 C 115.210938 65.867188 115.210938 66.550781 115.070312 67.214844 C 115.007812 67.546875 114.910156 67.871094 114.78125 68.183594 C 114.652344 68.496094 114.492188 68.792969 114.304688 69.074219 C 113.933594 69.640625 113.449219 70.125 112.878906 70.496094 C 112.601562 70.683594 112.300781 70.84375 111.992188 70.972656 C 111.679688 71.101562 111.355469 71.199219 111.023438 71.265625 C 110.695312 71.335938 110.355469 71.367188 110.019531 71.367188 Z M 110.019531 71.367188 " fill-opacity="1" fill-rule="nonzero"/><g clip-path="url(#4a69fefd6c)"><path fill="#000000" d="M 347.207031 71.367188 L 218.300781 71.367188 C 215.453125 71.367188 213.144531 69.058594 213.144531 66.210938 C 213.144531 63.363281 215.453125 61.050781 218.300781 61.050781 L 347.207031 61.050781 C 350.054688 61.050781 352.363281 63.363281 352.363281 66.210938 C 352.363281 69.058594 350.054688 71.367188 347.207031 71.367188 Z M 347.207031 71.367188 " fill-opacity="1" fill-rule="nonzero"/></g><path fill="#000000" d="M 104.863281 318.925781 L 73.925781 318.925781 C 71.078125 318.925781 68.769531 316.617188 68.769531 313.769531 L 68.769531 236.40625 C 68.769531 233.558594 71.078125 231.25 73.925781 231.25 L 104.863281 231.25 C 107.710938 231.25 110.019531 233.558594 110.019531 236.40625 L 110.019531 313.769531 C 110.019531 316.617188 107.710938 318.925781 104.863281 318.925781 Z M 79.082031 308.613281 L 99.707031 308.613281 L 99.707031 241.566406 L 79.082031 241.566406 Z M 79.082031 308.613281 " fill-opacity="1" fill-rule="nonzero"/><path fill="#000000" d="M 166.738281 318.925781 L 135.800781 318.925781 C 132.953125 318.925781 130.644531 316.617188 130.644531 313.769531 L 130.644531 205.460938 C 130.644531 202.613281 132.953125 200.304688 135.800781 200.304688 L 166.738281 200.304688 C 169.585938 200.304688 171.894531 202.613281 171.894531 205.460938 L 171.894531 313.769531 C 171.894531 316.617188 169.585938 318.925781 166.738281 318.925781 Z M 140.957031 308.613281 L 161.582031 308.613281 L 161.582031 210.621094 L 140.957031 210.621094 Z M 140.957031 308.613281 " fill-opacity="1" fill-rule="nonzero"/><path fill="#000000" d="M 228.613281 318.925781 L 197.675781 318.925781 C 194.828125 318.925781 192.519531 316.617188 192.519531 313.769531 L 192.519531 195.148438 C 192.519531 192.300781 194.828125 189.988281 197.675781 189.988281 L 228.613281 189.988281 C 231.460938 189.988281 233.769531 192.300781 233.769531 195.148438 L 233.769531 313.769531 C 233.769531 316.617188 231.460938 318.925781 228.613281 318.925781 Z M 202.832031 308.613281 L 223.457031 308.613281 L 223.457031 200.304688 L 202.832031 200.304688 Z M 202.832031 308.613281 " fill-opacity="1" fill-rule="nonzero"/><path fill="#000000" d="M 290.488281 318.925781 L 259.550781 318.925781 C 256.703125 318.925781 254.394531 316.617188 254.394531 313.769531 L 254.394531 174.515625 C 254.394531 171.667969 256.703125 169.359375 259.550781 169.359375 L 290.488281 169.359375 C 293.335938 169.359375 295.644531 171.667969 295.644531 174.515625 L 295.644531 313.769531 C 295.644531 316.617188 293.335938 318.925781 290.488281 318.925781 Z M 264.707031 308.613281 L 285.332031 308.613281 L 285.332031 179.675781 L 264.707031 179.675781 Z M 264.707031 308.613281 " fill-opacity="1" fill-rule="nonzero"/><g clip-path="url(#12951427f7)"><path fill="#000000" d="M 295.644531 339.558594 L 63.613281 339.558594 C 55.070312 339.558594 48.144531 332.628906 48.144531 324.085938 C 48.144531 315.539062 55.070312 308.613281 63.613281 308.613281 L 295.644531 308.613281 C 304.1875 308.613281 311.113281 315.539062 311.113281 324.085938 C 311.113281 332.628906 304.1875 339.558594 295.644531 339.558594 Z M 63.613281 318.925781 C 60.765625 318.925781 58.457031 321.234375 58.457031 324.085938 C 58.457031 326.933594 60.765625 329.242188 63.613281 329.242188 L 295.644531 329.242188 C 298.492188 329.242188 300.800781 326.933594 300.800781 324.085938 C 300.800781 321.234375 298.492188 318.925781 295.644531 318.925781 Z M 63.613281 318.925781 " fill-opacity="1" fill-rule="nonzero"/></g><path fill="#000000" d="M 89.394531 210.621094 C 78.003906 210.621094 68.769531 201.382812 68.769531 189.988281 C 68.769531 178.597656 78.003906 169.359375 89.394531 169.359375 C 100.785156 169.359375 110.019531 178.597656 110.019531 189.988281 C 110.019531 201.382812 100.785156 210.621094 89.394531 210.621094 Z M 89.394531 179.675781 C 83.699219 179.675781 79.082031 184.292969 79.082031 189.988281 C 79.082031 195.6875 83.699219 200.304688 89.394531 200.304688 C 95.089844 200.304688 99.707031 195.6875 99.707031 189.988281 C 99.707031 184.292969 95.089844 179.675781 89.394531 179.675781 Z M 89.394531 179.675781 " fill-opacity="1" fill-rule="nonzero"/><path fill="#000000" d="M 151.269531 164.203125 C 139.878906 164.203125 130.644531 154.964844 130.644531 143.574219 C 130.644531 132.179688 139.878906 122.941406 151.269531 122.941406 C 162.660156 122.941406 171.894531 132.179688 171.894531 143.574219 C 171.894531 154.964844 162.660156 164.203125 151.269531 164.203125 Z M 151.269531 133.257812 C 145.574219 133.257812 140.957031 137.875 140.957031 143.574219 C 140.957031 149.269531 145.574219 153.886719 151.269531 153.886719 C 156.964844 153.886719 161.582031 149.269531 161.582031 143.574219 C 161.582031 137.875 156.964844 133.257812 151.269531 133.257812 Z M 151.269531 133.257812 " fill-opacity="1" fill-rule="nonzero"/><path fill="#000000" d="M 212.5 179.675781 C 201.109375 179.675781 191.875 170.4375 191.875 159.042969 C 191.875 147.652344 201.109375 138.414062 212.5 138.414062 C 223.890625 138.414062 233.125 147.652344 233.125 159.042969 C 233.125 170.4375 223.890625 179.675781 212.5 179.675781 Z M 212.5 148.730469 C 206.804688 148.730469 202.1875 153.347656 202.1875 159.042969 C 202.1875 164.742188 206.804688 169.359375 212.5 169.359375 C 218.195312 169.359375 222.8125 164.742188 222.8125 159.042969 C 222.8125 153.347656 218.195312 148.730469 212.5 148.730469 Z M 212.5 148.730469 " fill-opacity="1" fill-rule="nonzero"/><path fill="#000000" d="M 275.019531 153.886719 C 263.628906 153.886719 254.394531 144.652344 254.394531 133.257812 C 254.394531 121.863281 263.628906 112.628906 275.019531 112.628906 C 286.410156 112.628906 295.644531 121.863281 295.644531 133.257812 C 295.644531 144.652344 286.410156 153.886719 275.019531 153.886719 Z M 275.019531 122.941406 C 269.324219 122.941406 264.707031 127.558594 264.707031 133.257812 C 264.707031 138.953125 269.324219 143.574219 275.019531 143.574219 C 280.714844 143.574219 285.332031 138.953125 285.332031 133.257812 C 285.332031 127.558594 280.714844 122.941406 275.019531 122.941406 Z M 275.019531 122.941406 " fill-opacity="1" fill-rule="nonzero"/><path fill="#000000" d="M 197.507812 160.410156 C 197.074219 160.414062 196.640625 160.359375 196.21875 160.257812 L 164.984375 152.367188 C 162.222656 151.667969 160.550781 148.863281 161.246094 146.097656 C 161.945312 143.335938 164.75 141.664062 167.511719 142.359375 L 198.746094 150.25 C 201.507812 150.945312 203.183594 153.746094 202.492188 156.507812 C 201.917969 158.804688 199.855469 160.414062 197.488281 160.410156 Z M 197.507812 160.410156 " fill-opacity="1" fill-rule="nonzero"/><path fill="#000000" d="M 101.777344 185.863281 C 98.929688 185.867188 96.617188 183.5625 96.613281 180.710938 C 96.609375 179.085938 97.375 177.554688 98.675781 176.582031 L 135.800781 148.730469 C 138.078125 147.019531 141.308594 147.480469 143.019531 149.761719 C 144.726562 152.039062 144.265625 155.273438 141.988281 156.980469 L 104.863281 184.832031 C 103.972656 185.5 102.890625 185.863281 101.777344 185.863281 Z M 101.777344 185.863281 " fill-opacity="1" fill-rule="nonzero"/><path fill="#000000" d="M 226.800781 158.304688 C 223.953125 158.308594 221.640625 156 221.640625 153.152344 C 221.636719 151.058594 222.898438 149.171875 224.835938 148.375 L 258.75 134.386719 C 261.386719 133.300781 264.402344 134.554688 265.488281 137.191406 C 266.570312 139.824219 265.316406 142.839844 262.683594 143.925781 L 228.765625 157.917969 C 228.144531 158.171875 227.476562 158.304688 226.800781 158.304688 Z M 226.800781 158.304688 " fill-opacity="1" fill-rule="nonzero"/></svg>