<svg xmlns="http://www.w3.org/2000/svg" xmlns:xlink="http://www.w3.org/1999/xlink" width="500" zoomAndPan="magnify" viewBox="0 0 375 374.999991" height="500" preserveAspectRatio="xMidYMid meet" version="1.0"><defs><clipPath id="04a0ffe0d0"><path d="M 26.832031 26.832031 L 347.832031 26.832031 L 347.832031 347.832031 L 26.832031 347.832031 Z M 26.832031 26.832031 " clip-rule="nonzero"/></clipPath></defs><g clip-path="url(#04a0ffe0d0)"><path fill="#040606" d="M 326.433594 315.730469 L 288.417969 315.730469 L 280.039062 164.742188 C 279.410156 153.414062 270.007812 144.53125 258.660156 144.53125 L 235.480469 144.53125 L 235.480469 139.183594 C 235.480469 112.640625 213.894531 91.03125 187.332031 91.03125 C 160.769531 91.03125 139.183594 112.640625 139.183594 139.183594 L 139.183594 144.53125 L 116.003906 144.53125 C 104.65625 144.53125 95.253906 153.414062 94.625 164.742188 L 86.246094 315.730469 L 48.230469 315.730469 C 42.339844 315.730469 37.53125 310.925781 37.53125 305.03125 L 37.53125 80.332031 L 337.132812 80.332031 L 337.132812 305.03125 C 337.132812 310.925781 332.324219 315.730469 326.433594 315.730469 Z M 224.78125 144.53125 L 149.882812 144.53125 L 149.882812 139.183594 C 149.882812 118.535156 166.683594 101.730469 187.332031 101.730469 C 207.980469 101.730469 224.78125 118.535156 224.78125 139.183594 Z M 275.355469 333.789062 C 273.308594 335.941406 270.550781 337.132812 267.582031 337.132812 L 107.082031 337.132812 C 104.113281 337.132812 101.355469 335.941406 99.308594 333.789062 C 97.257812 331.613281 96.234375 328.8125 96.402344 325.847656 L 105.304688 165.347656 C 105.617188 159.683594 110.320312 155.230469 116.003906 155.230469 L 139.183594 155.230469 L 139.183594 171.28125 C 139.183594 174.230469 141.585938 176.632812 144.53125 176.632812 C 147.480469 176.632812 149.882812 174.230469 149.882812 171.28125 L 149.882812 155.230469 L 224.78125 155.230469 L 224.78125 171.28125 C 224.78125 174.230469 227.183594 176.632812 230.132812 176.632812 C 233.078125 176.632812 235.480469 174.230469 235.480469 171.28125 L 235.480469 155.230469 L 258.660156 155.230469 C 264.34375 155.230469 269.042969 159.683594 269.359375 165.347656 L 278.261719 325.847656 C 278.429688 328.8125 277.402344 331.613281 275.355469 333.789062 Z M 48.230469 37.53125 L 326.433594 37.53125 C 332.324219 37.53125 337.132812 42.339844 337.132812 48.230469 L 337.132812 69.632812 L 37.53125 69.632812 L 37.53125 48.230469 C 37.53125 42.339844 42.339844 37.53125 48.230469 37.53125 Z M 326.433594 26.832031 L 48.230469 26.832031 C 36.425781 26.832031 26.832031 36.425781 26.832031 48.230469 L 26.832031 305.03125 C 26.832031 316.839844 36.425781 326.433594 48.230469 326.433594 L 85.765625 326.433594 C 85.765625 331.90625 87.730469 337.109375 91.535156 341.144531 C 95.609375 345.449219 101.148438 347.832031 107.082031 347.832031 L 267.582031 347.832031 C 273.515625 347.832031 279.054688 345.449219 283.128906 341.144531 C 286.933594 337.109375 288.898438 331.90625 288.898438 326.433594 L 326.433594 326.433594 C 338.238281 326.433594 347.832031 316.839844 347.832031 305.03125 L 347.832031 48.230469 C 347.832031 36.425781 338.238281 26.832031 326.433594 26.832031 " fill-opacity="1" fill-rule="nonzero"/></g><path fill="#040606" d="M 230.046875 229.402344 L 223.046875 264.46875 C 222.671875 266.265625 221.082031 267.582031 219.242188 267.582031 L 154.5625 267.582031 L 150.613281 224.78125 L 226.265625 224.78125 C 227.855469 224.78125 228.816406 225.660156 229.253906 226.203125 C 229.691406 226.726562 230.363281 227.855469 230.046875 229.402344 Z M 214.082031 305.03125 C 214.082031 307.980469 211.679688 310.382812 208.730469 310.382812 C 205.785156 310.382812 203.382812 307.980469 203.382812 305.03125 C 203.382812 302.085938 205.785156 299.683594 208.730469 299.683594 C 211.679688 299.683594 214.082031 302.085938 214.082031 305.03125 Z M 171.28125 305.03125 C 171.28125 307.980469 168.878906 310.382812 165.933594 310.382812 C 162.984375 310.382812 160.582031 307.980469 160.582031 305.03125 C 160.582031 302.085938 162.984375 299.683594 165.933594 299.683594 C 168.878906 299.683594 171.28125 302.085938 171.28125 305.03125 Z M 226.265625 214.082031 L 149.609375 214.082031 L 148.523438 202.398438 C 148.023438 196.863281 143.425781 192.683594 137.867188 192.683594 L 128.480469 192.683594 C 125.535156 192.683594 123.132812 195.085938 123.132812 198.03125 C 123.132812 200.980469 125.535156 203.382812 128.480469 203.382812 L 137.867188 203.382812 L 145.890625 289.964844 C 146.226562 293.640625 148.378906 296.671875 151.386719 298.34375 C 150.445312 300.390625 149.882812 302.628906 149.882812 305.03125 C 149.882812 313.894531 157.070312 321.082031 165.933594 321.082031 C 174.792969 321.082031 181.980469 313.894531 181.980469 305.03125 C 181.980469 303.152344 181.585938 301.355469 181 299.683594 L 193.664062 299.683594 C 193.078125 301.355469 192.683594 303.152344 192.683594 305.03125 C 192.683594 313.894531 199.871094 321.082031 208.730469 321.082031 C 217.59375 321.082031 224.78125 313.894531 224.78125 305.03125 C 224.78125 303.152344 224.386719 301.355469 223.800781 299.683594 L 224.78125 299.683594 C 227.730469 299.683594 230.132812 297.277344 230.132812 294.332031 C 230.132812 291.386719 227.730469 288.980469 224.78125 288.980469 L 156.546875 288.980469 L 155.546875 278.28125 L 219.242188 278.28125 C 226.160156 278.28125 232.179688 273.351562 233.539062 266.558594 L 240.539062 231.511719 C 241.394531 227.226562 240.308594 222.816406 237.53125 219.410156 C 234.75 216.027344 230.632812 214.082031 226.265625 214.082031 " fill-opacity="1" fill-rule="nonzero"/><path fill="#040606" d="M 53.582031 58.933594 L 58.933594 58.933594 C 61.878906 58.933594 64.28125 56.527344 64.28125 53.582031 C 64.28125 50.636719 61.878906 48.230469 58.933594 48.230469 L 53.582031 48.230469 C 50.636719 48.230469 48.230469 50.636719 48.230469 53.582031 C 48.230469 56.527344 50.636719 58.933594 53.582031 58.933594 " fill-opacity="1" fill-rule="nonzero"/><path fill="#040606" d="M 80.332031 58.933594 L 85.683594 58.933594 C 88.628906 58.933594 91.03125 56.527344 91.03125 53.582031 C 91.03125 50.636719 88.628906 48.230469 85.683594 48.230469 L 80.332031 48.230469 C 77.386719 48.230469 74.980469 50.636719 74.980469 53.582031 C 74.980469 56.527344 77.386719 58.933594 80.332031 58.933594 " fill-opacity="1" fill-rule="nonzero"/><path fill="#040606" d="M 107.082031 58.933594 L 112.433594 58.933594 C 115.378906 58.933594 117.78125 56.527344 117.78125 53.582031 C 117.78125 50.636719 115.378906 48.230469 112.433594 48.230469 L 107.082031 48.230469 C 104.136719 48.230469 101.730469 50.636719 101.730469 53.582031 C 101.730469 56.527344 104.136719 58.933594 107.082031 58.933594 " fill-opacity="1" fill-rule="nonzero"/><path fill="#040606" d="M 288.980469 58.933594 L 321.082031 58.933594 C 324.027344 58.933594 326.433594 56.527344 326.433594 53.582031 C 326.433594 50.636719 324.027344 48.230469 321.082031 48.230469 L 288.980469 48.230469 C 286.035156 48.230469 283.632812 50.636719 283.632812 53.582031 C 283.632812 56.527344 286.035156 58.933594 288.980469 58.933594 " fill-opacity="1" fill-rule="nonzero"/></svg>