<svg xmlns="http://www.w3.org/2000/svg" xmlns:xlink="http://www.w3.org/1999/xlink" width="500" zoomAndPan="magnify" viewBox="0 0 375 374.999991" height="500" preserveAspectRatio="xMidYMid meet" version="1.0"><defs><clipPath id="19dd0569ab"><path d="M 25.128906 91 L 349.878906 91 L 349.878906 349.878906 L 25.128906 349.878906 Z M 25.128906 91 " clip-rule="nonzero"/></clipPath><clipPath id="47341499a3"><path d="M 50 25.128906 L 325 25.128906 L 325 279 L 50 279 Z M 50 25.128906 " clip-rule="nonzero"/></clipPath></defs><g clip-path="url(#19dd0569ab)"><path fill="#000000" d="M 334.65625 91.761719 L 334.65625 102.652344 C 335.425781 103.09375 336.125 103.625 336.753906 104.25 C 337.382812 104.878906 337.921875 105.574219 338.367188 106.339844 C 338.8125 107.109375 339.148438 107.921875 339.382812 108.777344 C 339.613281 109.632812 339.730469 110.503906 339.730469 111.390625 L 339.730469 309.285156 C 339.730469 309.953125 339.667969 310.613281 339.535156 311.265625 C 339.40625 311.917969 339.214844 312.554688 338.957031 313.167969 C 338.703125 313.785156 338.390625 314.371094 338.019531 314.925781 C 337.652344 315.476562 337.230469 315.992188 336.757812 316.460938 C 336.289062 316.933594 335.773438 317.355469 335.222656 317.722656 C 334.667969 318.09375 334.082031 318.40625 333.464844 318.660156 C 332.851562 318.917969 332.214844 319.109375 331.5625 319.238281 C 330.910156 319.371094 330.25 319.433594 329.582031 319.433594 L 45.425781 319.433594 C 44.761719 319.433594 44.101562 319.371094 43.445312 319.238281 C 42.792969 319.109375 42.160156 318.917969 41.542969 318.660156 C 40.925781 318.40625 40.34375 318.09375 39.789062 317.722656 C 39.234375 317.355469 38.722656 316.933594 38.25 316.460938 C 37.78125 315.992188 37.359375 315.476562 36.988281 314.925781 C 36.617188 314.371094 36.304688 313.785156 36.050781 313.167969 C 35.796875 312.554688 35.601562 311.917969 35.472656 311.265625 C 35.34375 310.613281 35.277344 309.953125 35.277344 309.285156 L 35.277344 111.390625 C 35.28125 110.503906 35.398438 109.632812 35.628906 108.777344 C 35.859375 107.921875 36.199219 107.109375 36.644531 106.339844 C 37.089844 105.574219 37.625 104.878906 38.253906 104.25 C 38.882812 103.625 39.582031 103.09375 40.351562 102.652344 L 40.351562 91.761719 C 39.273438 92.042969 38.222656 92.410156 37.203125 92.863281 C 36.179688 93.316406 35.207031 93.847656 34.273438 94.460938 C 33.339844 95.074219 32.464844 95.761719 31.644531 96.519531 C 30.828125 97.277344 30.074219 98.097656 29.390625 98.980469 C 28.707031 99.863281 28.101562 100.792969 27.570312 101.777344 C 27.039062 102.757812 26.59375 103.777344 26.230469 104.832031 C 25.867188 105.886719 25.59375 106.964844 25.410156 108.066406 C 25.226562 109.167969 25.132812 110.277344 25.128906 111.390625 L 25.128906 309.285156 C 25.128906 309.949219 25.164062 310.613281 25.230469 311.273438 C 25.296875 311.9375 25.394531 312.59375 25.523438 313.246094 C 25.652344 313.894531 25.816406 314.539062 26.007812 315.175781 C 26.203125 315.8125 26.425781 316.4375 26.679688 317.050781 C 26.9375 317.664062 27.21875 318.261719 27.535156 318.847656 C 27.847656 319.433594 28.1875 320.003906 28.558594 320.558594 C 28.925781 321.109375 29.324219 321.640625 29.742188 322.15625 C 30.164062 322.667969 30.613281 323.160156 31.082031 323.632812 C 31.550781 324.101562 32.042969 324.546875 32.558594 324.96875 C 33.070312 325.390625 33.601562 325.785156 34.15625 326.15625 C 34.707031 326.523438 35.277344 326.867188 35.863281 327.179688 C 36.449219 327.492188 37.050781 327.777344 37.664062 328.03125 C 38.277344 328.285156 38.902344 328.511719 39.539062 328.703125 C 40.171875 328.898438 40.816406 329.058594 41.46875 329.1875 C 42.121094 329.320312 42.777344 329.417969 43.4375 329.484375 C 44.097656 329.550781 44.761719 329.582031 45.425781 329.582031 L 144.375 329.582031 L 144.375 339.730469 L 119.003906 339.730469 C 118.667969 339.730469 118.339844 339.765625 118.011719 339.828125 C 117.6875 339.894531 117.367188 339.988281 117.0625 340.117188 C 116.753906 340.246094 116.460938 340.402344 116.183594 340.585938 C 115.90625 340.773438 115.652344 340.980469 115.414062 341.21875 C 115.179688 341.453125 114.96875 341.710938 114.785156 341.988281 C 114.597656 342.261719 114.441406 342.554688 114.316406 342.863281 C 114.1875 343.171875 114.089844 343.488281 114.027344 343.816406 C 113.960938 344.140625 113.929688 344.472656 113.929688 344.804688 C 113.929688 345.140625 113.960938 345.46875 114.027344 345.796875 C 114.089844 346.121094 114.1875 346.441406 114.316406 346.746094 C 114.441406 347.054688 114.597656 347.347656 114.785156 347.625 C 114.96875 347.902344 115.179688 348.15625 115.414062 348.394531 C 115.652344 348.628906 115.90625 348.839844 116.183594 349.023438 C 116.460938 349.210938 116.753906 349.367188 117.0625 349.492188 C 117.367188 349.621094 117.6875 349.71875 118.011719 349.78125 C 118.339844 349.847656 118.667969 349.878906 119.003906 349.878906 L 256.007812 349.878906 C 256.339844 349.878906 256.671875 349.847656 256.996094 349.78125 C 257.324219 349.71875 257.640625 349.621094 257.949219 349.492188 C 258.257812 349.367188 258.550781 349.210938 258.824219 349.023438 C 259.101562 348.839844 259.359375 348.628906 259.59375 348.394531 C 259.832031 348.15625 260.039062 347.902344 260.226562 347.625 C 260.410156 347.347656 260.566406 347.054688 260.695312 346.746094 C 260.824219 346.441406 260.917969 346.121094 260.984375 345.796875 C 261.046875 345.46875 261.082031 345.140625 261.082031 344.804688 C 261.082031 344.472656 261.046875 344.140625 260.984375 343.816406 C 260.917969 343.488281 260.824219 343.171875 260.695312 342.863281 C 260.566406 342.554688 260.410156 342.261719 260.226562 341.988281 C 260.039062 341.710938 259.832031 341.453125 259.59375 341.21875 C 259.359375 340.980469 259.101562 340.773438 258.824219 340.585938 C 258.550781 340.402344 258.257812 340.246094 257.949219 340.117188 C 257.640625 339.988281 257.324219 339.894531 256.996094 339.828125 C 256.671875 339.765625 256.339844 339.730469 256.007812 339.730469 L 230.636719 339.730469 L 230.636719 329.582031 L 329.582031 329.582031 C 330.246094 329.582031 330.910156 329.550781 331.570312 329.484375 C 332.234375 329.417969 332.890625 329.320312 333.542969 329.1875 C 334.191406 329.058594 334.835938 328.898438 335.472656 328.703125 C 336.109375 328.511719 336.734375 328.285156 337.347656 328.03125 C 337.960938 327.777344 338.558594 327.492188 339.144531 327.179688 C 339.730469 326.867188 340.300781 326.523438 340.855469 326.15625 C 341.40625 325.785156 341.9375 325.390625 342.453125 324.96875 C 342.964844 324.546875 343.457031 324.101562 343.929688 323.632812 C 344.398438 323.160156 344.84375 322.667969 345.265625 322.15625 C 345.6875 321.640625 346.082031 321.109375 346.453125 320.558594 C 346.820312 320.003906 347.164062 319.433594 347.476562 318.847656 C 347.789062 318.261719 348.074219 317.664062 348.328125 317.050781 C 348.582031 316.4375 348.808594 315.8125 349 315.175781 C 349.195312 314.539062 349.355469 313.894531 349.484375 313.246094 C 349.617188 312.59375 349.714844 311.9375 349.78125 311.273438 C 349.847656 310.613281 349.878906 309.949219 349.878906 309.285156 L 349.878906 111.390625 C 349.878906 110.277344 349.785156 109.167969 349.601562 108.066406 C 349.414062 106.964844 349.140625 105.886719 348.777344 104.832031 C 348.417969 103.777344 347.96875 102.757812 347.441406 101.777344 C 346.910156 100.792969 346.300781 99.863281 345.617188 98.980469 C 344.933594 98.097656 344.183594 97.277344 343.363281 96.519531 C 342.542969 95.761719 341.667969 95.074219 340.738281 94.460938 C 339.804688 93.847656 338.828125 93.316406 337.808594 92.863281 C 336.789062 92.410156 335.738281 92.042969 334.65625 91.761719 Z M 220.488281 339.730469 L 154.523438 339.730469 L 154.523438 329.582031 L 220.488281 329.582031 Z M 220.488281 339.730469 " fill-opacity="1" fill-rule="nonzero"/></g><path fill="#000000" d="M 299.136719 45.425781 L 288.988281 45.425781 C 288.65625 45.425781 288.324219 45.460938 288 45.523438 C 287.671875 45.589844 287.355469 45.683594 287.046875 45.8125 C 286.738281 45.941406 286.445312 46.097656 286.171875 46.28125 C 285.894531 46.46875 285.636719 46.675781 285.402344 46.914062 C 285.164062 47.148438 284.957031 47.40625 284.769531 47.683594 C 284.585938 47.957031 284.429688 48.25 284.300781 48.558594 C 284.171875 48.867188 284.078125 49.183594 284.011719 49.511719 C 283.949219 49.835938 283.914062 50.167969 283.914062 50.5 C 283.914062 50.835938 283.949219 51.164062 284.011719 51.492188 C 284.078125 51.816406 284.171875 52.136719 284.300781 52.441406 C 284.429688 52.75 284.585938 53.042969 284.769531 53.320312 C 284.957031 53.597656 285.164062 53.851562 285.402344 54.089844 C 285.636719 54.324219 285.894531 54.535156 286.171875 54.71875 C 286.445312 54.90625 286.738281 55.0625 287.046875 55.1875 C 287.355469 55.316406 287.671875 55.414062 288 55.476562 C 288.324219 55.542969 288.65625 55.574219 288.988281 55.574219 L 299.136719 55.574219 C 299.472656 55.574219 299.800781 55.542969 300.128906 55.476562 C 300.453125 55.414062 300.773438 55.316406 301.078125 55.1875 C 301.386719 55.0625 301.679688 54.90625 301.957031 54.71875 C 302.234375 54.535156 302.488281 54.324219 302.726562 54.089844 C 302.960938 53.851562 303.171875 53.597656 303.355469 53.320312 C 303.542969 53.042969 303.699219 52.75 303.824219 52.441406 C 303.953125 52.136719 304.050781 51.816406 304.113281 51.492188 C 304.179688 51.164062 304.210938 50.835938 304.210938 50.5 C 304.210938 50.167969 304.179688 49.835938 304.113281 49.511719 C 304.050781 49.183594 303.953125 48.867188 303.824219 48.558594 C 303.699219 48.25 303.542969 47.957031 303.355469 47.683594 C 303.171875 47.40625 302.960938 47.148438 302.726562 46.914062 C 302.488281 46.675781 302.234375 46.46875 301.957031 46.28125 C 301.679688 46.097656 301.386719 45.941406 301.078125 45.8125 C 300.773438 45.683594 300.453125 45.589844 300.128906 45.523438 C 299.800781 45.460938 299.472656 45.425781 299.136719 45.425781 Z M 299.136719 45.425781 " fill-opacity="1" fill-rule="nonzero"/><path fill="#000000" d="M 268.691406 45.425781 L 258.542969 45.425781 C 258.210938 45.425781 257.878906 45.460938 257.554688 45.523438 C 257.226562 45.589844 256.910156 45.683594 256.601562 45.8125 C 256.292969 45.941406 256 46.097656 255.726562 46.28125 C 255.449219 46.46875 255.191406 46.675781 254.957031 46.914062 C 254.71875 47.148438 254.511719 47.40625 254.324219 47.683594 C 254.140625 47.957031 253.984375 48.25 253.855469 48.558594 C 253.726562 48.867188 253.632812 49.183594 253.566406 49.511719 C 253.503906 49.835938 253.46875 50.167969 253.46875 50.5 C 253.46875 50.835938 253.503906 51.164062 253.566406 51.492188 C 253.632812 51.816406 253.726562 52.136719 253.855469 52.441406 C 253.984375 52.75 254.140625 53.042969 254.324219 53.320312 C 254.511719 53.597656 254.71875 53.851562 254.957031 54.089844 C 255.191406 54.324219 255.449219 54.535156 255.726562 54.71875 C 256 54.90625 256.292969 55.0625 256.601562 55.1875 C 256.910156 55.316406 257.226562 55.414062 257.554688 55.476562 C 257.878906 55.542969 258.210938 55.574219 258.542969 55.574219 L 268.691406 55.574219 C 269.027344 55.574219 269.355469 55.542969 269.683594 55.476562 C 270.007812 55.414062 270.328125 55.316406 270.632812 55.1875 C 270.941406 55.0625 271.234375 54.90625 271.511719 54.71875 C 271.789062 54.535156 272.042969 54.324219 272.28125 54.089844 C 272.515625 53.851562 272.726562 53.597656 272.910156 53.320312 C 273.097656 53.042969 273.253906 52.75 273.378906 52.441406 C 273.507812 52.136719 273.605469 51.816406 273.667969 51.492188 C 273.734375 51.164062 273.765625 50.835938 273.765625 50.5 C 273.765625 50.167969 273.734375 49.835938 273.667969 49.511719 C 273.605469 49.183594 273.507812 48.867188 273.378906 48.558594 C 273.253906 48.25 273.097656 47.957031 272.910156 47.683594 C 272.726562 47.40625 272.515625 47.148438 272.28125 46.914062 C 272.042969 46.675781 271.789062 46.46875 271.511719 46.28125 C 271.234375 46.097656 270.941406 45.941406 270.632812 45.8125 C 270.328125 45.683594 270.007812 45.589844 269.683594 45.523438 C 269.355469 45.460938 269.027344 45.425781 268.691406 45.425781 Z M 268.691406 45.425781 " fill-opacity="1" fill-rule="nonzero"/><path fill="#000000" d="M 187.503906 157.058594 L 187.503906 96.167969 C 187.503906 95.503906 187.441406 94.84375 187.308594 94.1875 C 187.179688 93.535156 186.988281 92.902344 186.730469 92.285156 C 186.476562 91.667969 186.164062 91.085938 185.792969 90.53125 C 185.425781 89.976562 185.003906 89.464844 184.53125 88.992188 C 184.0625 88.523438 183.546875 88.101562 182.996094 87.730469 C 182.441406 87.359375 181.855469 87.046875 181.238281 86.792969 C 180.625 86.539062 179.988281 86.34375 179.335938 86.214844 C 178.683594 86.085938 178.023438 86.019531 177.355469 86.019531 L 80.945312 86.019531 C 80.28125 86.019531 79.621094 86.085938 78.964844 86.214844 C 78.3125 86.34375 77.679688 86.539062 77.0625 86.792969 C 76.445312 87.046875 75.863281 87.359375 75.308594 87.730469 C 74.753906 88.101562 74.242188 88.523438 73.769531 88.992188 C 73.300781 89.464844 72.878906 89.976562 72.507812 90.53125 C 72.136719 91.085938 71.824219 91.667969 71.570312 92.285156 C 71.316406 92.902344 71.121094 93.535156 70.992188 94.1875 C 70.863281 94.84375 70.796875 95.503906 70.796875 96.167969 L 70.796875 157.058594 C 70.796875 157.726562 70.863281 158.386719 70.992188 159.039062 C 71.121094 159.691406 71.316406 160.328125 71.570312 160.941406 C 71.824219 161.558594 72.136719 162.144531 72.507812 162.699219 C 72.878906 163.25 73.300781 163.765625 73.769531 164.234375 C 74.242188 164.707031 74.753906 165.128906 75.308594 165.496094 C 75.863281 165.867188 76.445312 166.179688 77.0625 166.433594 C 77.679688 166.691406 78.3125 166.882812 78.964844 167.011719 C 79.621094 167.144531 80.28125 167.207031 80.945312 167.207031 L 177.355469 167.207031 C 178.023438 167.207031 178.683594 167.144531 179.335938 167.011719 C 179.988281 166.882812 180.625 166.691406 181.238281 166.433594 C 181.855469 166.179688 182.441406 165.867188 182.996094 165.496094 C 183.546875 165.128906 184.0625 164.707031 184.53125 164.234375 C 185.003906 163.765625 185.425781 163.25 185.792969 162.699219 C 186.164062 162.144531 186.476562 161.558594 186.730469 160.941406 C 186.988281 160.328125 187.179688 159.691406 187.308594 159.039062 C 187.441406 158.386719 187.503906 157.726562 187.503906 157.058594 Z M 80.945312 96.167969 L 177.355469 96.167969 L 177.355469 157.058594 L 80.945312 157.058594 Z M 80.945312 96.167969 " fill-opacity="1" fill-rule="nonzero"/><path fill="#000000" d="M 212.875 101.242188 L 299.136719 101.242188 C 299.472656 101.242188 299.800781 101.210938 300.128906 101.144531 C 300.453125 101.082031 300.773438 100.984375 301.078125 100.855469 C 301.386719 100.730469 301.679688 100.574219 301.957031 100.386719 C 302.234375 100.203125 302.488281 99.992188 302.726562 99.757812 C 302.960938 99.519531 303.171875 99.265625 303.355469 98.988281 C 303.542969 98.710938 303.699219 98.417969 303.824219 98.109375 C 303.953125 97.804688 304.050781 97.484375 304.113281 97.160156 C 304.179688 96.832031 304.210938 96.503906 304.210938 96.167969 C 304.210938 95.835938 304.179688 95.503906 304.113281 95.179688 C 304.050781 94.851562 303.953125 94.535156 303.824219 94.226562 C 303.699219 93.917969 303.542969 93.625 303.355469 93.351562 C 303.171875 93.074219 302.960938 92.816406 302.726562 92.582031 C 302.488281 92.34375 302.234375 92.136719 301.957031 91.949219 C 301.679688 91.765625 301.386719 91.609375 301.078125 91.480469 C 300.773438 91.351562 300.453125 91.257812 300.128906 91.191406 C 299.800781 91.128906 299.472656 91.09375 299.136719 91.09375 L 212.875 91.09375 C 212.542969 91.09375 212.210938 91.128906 211.886719 91.191406 C 211.558594 91.257812 211.242188 91.351562 210.933594 91.480469 C 210.625 91.609375 210.332031 91.765625 210.058594 91.949219 C 209.78125 92.136719 209.523438 92.34375 209.289062 92.582031 C 209.050781 92.816406 208.84375 93.074219 208.65625 93.351562 C 208.472656 93.625 208.316406 93.917969 208.1875 94.226562 C 208.058594 94.535156 207.964844 94.851562 207.898438 95.179688 C 207.835938 95.503906 207.800781 95.835938 207.800781 96.167969 C 207.800781 96.503906 207.835938 96.832031 207.898438 97.160156 C 207.964844 97.484375 208.058594 97.804688 208.1875 98.109375 C 208.316406 98.417969 208.472656 98.710938 208.65625 98.988281 C 208.84375 99.265625 209.050781 99.519531 209.289062 99.757812 C 209.523438 99.992188 209.78125 100.203125 210.058594 100.386719 C 210.332031 100.574219 210.625 100.730469 210.933594 100.855469 C 211.242188 100.984375 211.558594 101.082031 211.886719 101.144531 C 212.210938 101.210938 212.542969 101.242188 212.875 101.242188 Z M 212.875 101.242188 " fill-opacity="1" fill-rule="nonzero"/><path fill="#000000" d="M 212.875 121.539062 L 299.136719 121.539062 C 299.472656 121.539062 299.800781 121.507812 300.128906 121.441406 C 300.453125 121.378906 300.773438 121.28125 301.078125 121.152344 C 301.386719 121.027344 301.679688 120.871094 301.957031 120.683594 C 302.234375 120.5 302.488281 120.289062 302.726562 120.054688 C 302.960938 119.816406 303.171875 119.5625 303.355469 119.285156 C 303.542969 119.007812 303.699219 118.714844 303.824219 118.40625 C 303.953125 118.101562 304.050781 117.78125 304.113281 117.457031 C 304.179688 117.128906 304.210938 116.800781 304.210938 116.464844 C 304.210938 116.132812 304.179688 115.800781 304.113281 115.476562 C 304.050781 115.148438 303.953125 114.832031 303.824219 114.523438 C 303.699219 114.214844 303.542969 113.921875 303.355469 113.648438 C 303.171875 113.371094 302.960938 113.113281 302.726562 112.878906 C 302.488281 112.640625 302.234375 112.433594 301.957031 112.246094 C 301.679688 112.0625 301.386719 111.90625 301.078125 111.777344 C 300.773438 111.648438 300.453125 111.554688 300.128906 111.488281 C 299.800781 111.425781 299.472656 111.390625 299.136719 111.390625 L 212.875 111.390625 C 212.542969 111.390625 212.210938 111.425781 211.886719 111.488281 C 211.558594 111.554688 211.242188 111.648438 210.933594 111.777344 C 210.625 111.90625 210.332031 112.0625 210.058594 112.246094 C 209.78125 112.433594 209.523438 112.640625 209.289062 112.878906 C 209.050781 113.113281 208.84375 113.371094 208.65625 113.648438 C 208.472656 113.921875 208.316406 114.214844 208.1875 114.523438 C 208.058594 114.832031 207.964844 115.148438 207.898438 115.476562 C 207.835938 115.800781 207.800781 116.132812 207.800781 116.464844 C 207.800781 116.800781 207.835938 117.128906 207.898438 117.457031 C 207.964844 117.78125 208.058594 118.101562 208.1875 118.40625 C 208.316406 118.714844 208.472656 119.007812 208.65625 119.285156 C 208.84375 119.5625 209.050781 119.816406 209.289062 120.054688 C 209.523438 120.289062 209.78125 120.5 210.058594 120.683594 C 210.332031 120.871094 210.625 121.027344 210.933594 121.152344 C 211.242188 121.28125 211.558594 121.378906 211.886719 121.441406 C 212.210938 121.507812 212.542969 121.539062 212.875 121.539062 Z M 212.875 121.539062 " fill-opacity="1" fill-rule="nonzero"/><path fill="#000000" d="M 212.875 141.835938 L 299.136719 141.835938 C 299.472656 141.835938 299.800781 141.804688 300.128906 141.738281 C 300.453125 141.675781 300.773438 141.578125 301.078125 141.449219 C 301.386719 141.324219 301.679688 141.167969 301.957031 140.980469 C 302.234375 140.796875 302.488281 140.585938 302.726562 140.351562 C 302.960938 140.113281 303.171875 139.859375 303.355469 139.582031 C 303.542969 139.304688 303.699219 139.011719 303.824219 138.703125 C 303.953125 138.398438 304.050781 138.078125 304.113281 137.753906 C 304.179688 137.425781 304.210938 137.097656 304.210938 136.761719 C 304.210938 136.429688 304.179688 136.097656 304.113281 135.773438 C 304.050781 135.445312 303.953125 135.128906 303.824219 134.820312 C 303.699219 134.511719 303.542969 134.21875 303.355469 133.945312 C 303.171875 133.667969 302.960938 133.410156 302.726562 133.175781 C 302.488281 132.9375 302.234375 132.730469 301.957031 132.542969 C 301.679688 132.359375 301.386719 132.203125 301.078125 132.074219 C 300.773438 131.945312 300.453125 131.851562 300.128906 131.785156 C 299.800781 131.722656 299.472656 131.6875 299.136719 131.6875 L 212.875 131.6875 C 212.542969 131.6875 212.210938 131.722656 211.886719 131.785156 C 211.558594 131.851562 211.242188 131.945312 210.933594 132.074219 C 210.625 132.203125 210.332031 132.359375 210.058594 132.542969 C 209.78125 132.730469 209.523438 132.9375 209.289062 133.175781 C 209.050781 133.410156 208.84375 133.667969 208.65625 133.945312 C 208.472656 134.21875 208.316406 134.511719 208.1875 134.820312 C 208.058594 135.128906 207.964844 135.445312 207.898438 135.773438 C 207.835938 136.097656 207.800781 136.429688 207.800781 136.761719 C 207.800781 137.097656 207.835938 137.425781 207.898438 137.753906 C 207.964844 138.078125 208.058594 138.398438 208.1875 138.703125 C 208.316406 139.011719 208.472656 139.304688 208.65625 139.582031 C 208.84375 139.859375 209.050781 140.113281 209.289062 140.351562 C 209.523438 140.585938 209.78125 140.796875 210.058594 140.980469 C 210.332031 141.167969 210.625 141.324219 210.933594 141.449219 C 211.242188 141.578125 211.558594 141.675781 211.886719 141.738281 C 212.210938 141.804688 212.542969 141.835938 212.875 141.835938 Z M 212.875 141.835938 " fill-opacity="1" fill-rule="nonzero"/><path fill="#000000" d="M 304.210938 157.058594 C 304.210938 156.726562 304.179688 156.394531 304.113281 156.070312 C 304.050781 155.742188 303.953125 155.425781 303.824219 155.117188 C 303.699219 154.808594 303.542969 154.519531 303.355469 154.242188 C 303.171875 153.964844 302.960938 153.707031 302.726562 153.472656 C 302.488281 153.234375 302.234375 153.027344 301.957031 152.839844 C 301.679688 152.65625 301.386719 152.5 301.078125 152.371094 C 300.773438 152.246094 300.453125 152.148438 300.128906 152.082031 C 299.800781 152.019531 299.472656 151.984375 299.136719 151.984375 L 212.875 151.984375 C 212.542969 151.984375 212.210938 152.019531 211.886719 152.082031 C 211.558594 152.148438 211.242188 152.242188 210.933594 152.371094 C 210.625 152.5 210.332031 152.65625 210.058594 152.839844 C 209.78125 153.027344 209.523438 153.234375 209.289062 153.472656 C 209.050781 153.707031 208.84375 153.964844 208.65625 154.242188 C 208.472656 154.515625 208.316406 154.808594 208.1875 155.117188 C 208.058594 155.425781 207.964844 155.742188 207.898438 156.070312 C 207.835938 156.394531 207.800781 156.726562 207.800781 157.058594 C 207.800781 157.394531 207.835938 157.722656 207.898438 158.050781 C 207.964844 158.375 208.058594 158.695312 208.1875 159 C 208.316406 159.308594 208.472656 159.601562 208.65625 159.878906 C 208.84375 160.15625 209.050781 160.410156 209.289062 160.648438 C 209.523438 160.882812 209.78125 161.09375 210.058594 161.277344 C 210.332031 161.464844 210.625 161.621094 210.933594 161.746094 C 211.242188 161.875 211.558594 161.972656 211.886719 162.035156 C 212.210938 162.101562 212.542969 162.132812 212.875 162.132812 L 299.136719 162.132812 C 299.472656 162.132812 299.800781 162.101562 300.128906 162.035156 C 300.453125 161.972656 300.773438 161.875 301.078125 161.746094 C 301.386719 161.621094 301.679688 161.464844 301.957031 161.277344 C 302.234375 161.09375 302.488281 160.882812 302.726562 160.648438 C 302.960938 160.410156 303.171875 160.15625 303.355469 159.878906 C 303.542969 159.601562 303.699219 159.308594 303.824219 159 C 303.953125 158.695312 304.050781 158.375 304.113281 158.050781 C 304.179688 157.722656 304.210938 157.394531 304.210938 157.058594 Z M 304.210938 157.058594 " fill-opacity="1" fill-rule="nonzero"/><g clip-path="url(#47341499a3)"><path fill="#000000" d="M 55.574219 278.839844 L 143.097656 278.839844 C 140.9375 275.796875 139.710938 272.414062 139.421875 268.691406 L 60.648438 268.691406 L 60.648438 75.871094 L 314.359375 75.871094 L 314.359375 268.691406 L 235.589844 268.691406 C 235.296875 272.414062 234.070312 275.796875 231.910156 278.839844 L 319.433594 278.839844 C 322.238281 278.839844 324.507812 276.570312 324.507812 271.230469 L 324.507812 37.816406 C 324.507812 31.957031 317.679688 25.128906 309.285156 25.128906 L 65.722656 25.128906 C 57.328125 25.128906 50.5 31.957031 50.5 37.816406 L 50.5 271.230469 C 50.5 276.570312 52.773438 278.839844 55.574219 278.839844 Z M 60.648438 40.351562 C 60.648438 40.019531 60.683594 39.691406 60.746094 39.363281 C 60.8125 39.035156 60.910156 38.71875 61.039062 38.410156 C 61.164062 38.105469 61.320312 37.8125 61.507812 37.535156 C 61.691406 37.257812 61.902344 37.003906 62.136719 36.765625 C 62.375 36.53125 62.628906 36.320312 62.90625 36.136719 C 63.183594 35.949219 63.476562 35.792969 63.78125 35.667969 C 64.089844 35.539062 64.40625 35.441406 64.734375 35.375 C 65.0625 35.3125 65.390625 35.277344 65.722656 35.277344 L 309.285156 35.277344 C 309.621094 35.277344 309.949219 35.3125 310.277344 35.375 C 310.601562 35.441406 310.917969 35.539062 311.226562 35.667969 C 311.535156 35.792969 311.828125 35.949219 312.105469 36.136719 C 312.378906 36.320312 312.636719 36.53125 312.871094 36.765625 C 313.109375 37.003906 313.316406 37.257812 313.503906 37.535156 C 313.6875 37.8125 313.84375 38.105469 313.972656 38.410156 C 314.101562 38.71875 314.195312 39.035156 314.261719 39.363281 C 314.328125 39.691406 314.359375 40.019531 314.359375 40.351562 L 314.359375 65.722656 L 60.648438 65.722656 Z M 60.648438 40.351562 " fill-opacity="1" fill-rule="nonzero"/></g><path fill="#000000" d="M 179.851562 305.804688 C 180.328125 306.351562 180.859375 306.839844 181.4375 307.273438 C 182.019531 307.707031 182.640625 308.074219 183.300781 308.375 C 183.960938 308.675781 184.644531 308.902344 185.355469 309.054688 C 186.0625 309.210938 186.78125 309.285156 187.503906 309.285156 C 188.230469 309.285156 188.945312 309.210938 189.65625 309.054688 C 190.363281 308.902344 191.046875 308.675781 191.707031 308.375 C 192.367188 308.074219 192.988281 307.707031 193.570312 307.273438 C 194.152344 306.839844 194.679688 306.351562 195.15625 305.804688 L 222.914062 273.941406 C 223.578125 273.214844 224.125 272.40625 224.550781 271.523438 C 224.980469 270.636719 225.273438 269.710938 225.433594 268.738281 C 225.59375 267.769531 225.609375 266.796875 225.488281 265.820312 C 225.363281 264.84375 225.101562 263.90625 224.707031 263.007812 C 224.308594 262.105469 223.792969 261.28125 223.15625 260.53125 C 222.519531 259.78125 221.789062 259.136719 220.964844 258.601562 C 220.140625 258.0625 219.257812 257.652344 218.316406 257.375 C 217.371094 257.09375 216.410156 256.953125 215.425781 256.953125 L 205.265625 256.953125 L 205.265625 207.800781 C 205.265625 207.136719 205.199219 206.476562 205.070312 205.820312 C 204.941406 205.167969 204.746094 204.535156 204.492188 203.917969 C 204.238281 203.300781 203.925781 202.71875 203.554688 202.164062 C 203.183594 201.609375 202.761719 201.097656 202.292969 200.625 C 201.820312 200.15625 201.308594 199.734375 200.753906 199.363281 C 200.199219 198.992188 199.617188 198.679688 199 198.425781 C 198.382812 198.171875 197.75 197.976562 197.097656 197.847656 C 196.441406 197.71875 195.78125 197.652344 195.117188 197.652344 L 179.894531 197.652344 C 179.226562 197.652344 178.566406 197.71875 177.914062 197.847656 C 177.261719 197.976562 176.625 198.171875 176.011719 198.425781 C 175.394531 198.679688 174.808594 198.992188 174.253906 199.363281 C 173.703125 199.734375 173.1875 200.15625 172.71875 200.625 C 172.246094 201.097656 171.824219 201.609375 171.457031 202.164062 C 171.085938 202.71875 170.773438 203.300781 170.519531 203.917969 C 170.261719 204.535156 170.070312 205.167969 169.941406 205.820312 C 169.808594 206.476562 169.746094 207.136719 169.746094 207.800781 L 169.746094 256.953125 L 159.597656 256.953125 C 158.621094 256.953125 157.667969 257.089844 156.734375 257.363281 C 155.800781 257.640625 154.921875 258.039062 154.105469 258.566406 C 153.285156 259.09375 152.558594 259.726562 151.921875 260.460938 C 151.285156 261.199219 150.761719 262.011719 150.359375 262.898438 C 149.957031 263.785156 149.6875 264.707031 149.550781 265.671875 C 149.414062 266.636719 149.414062 267.601562 149.554688 268.566406 C 149.695312 269.527344 149.96875 270.453125 150.375 271.335938 C 150.78125 272.222656 151.304688 273.03125 151.945312 273.765625 Z M 179.894531 267.101562 L 179.894531 207.800781 L 195.117188 207.800781 L 195.117188 267.101562 L 215.414062 267.101562 L 187.503906 299.136719 L 159.597656 267.101562 Z M 179.894531 267.101562 " fill-opacity="1" fill-rule="nonzero"/></svg>