<svg xmlns="http://www.w3.org/2000/svg" xmlns:xlink="http://www.w3.org/1999/xlink" width="500" zoomAndPan="magnify" viewBox="0 0 375 374.999991" height="500" preserveAspectRatio="xMidYMid meet" version="1.0"><defs><clipPath id="a50eea8bc1"><path d="M 16.347656 50.578125 L 358.347656 50.578125 L 358.347656 324.328125 L 16.347656 324.328125 Z M 16.347656 50.578125 " clip-rule="nonzero"/></clipPath></defs><path fill="#000000" d="M 48.691406 219.324219 C 41.425781 219.324219 35.511719 225.242188 35.511719 232.511719 C 35.511719 239.78125 41.425781 245.703125 48.691406 245.703125 C 55.957031 245.703125 61.875 239.785156 61.875 232.511719 C 61.875 225.238281 55.960938 219.324219 48.691406 219.324219 Z M 48.691406 238.109375 C 45.609375 238.109375 43.09375 235.601562 43.09375 232.507812 C 43.09375 229.414062 45.605469 226.910156 48.691406 226.910156 C 51.777344 226.910156 54.292969 229.417969 54.292969 232.507812 C 54.292969 235.597656 51.78125 238.109375 48.691406 238.109375 Z M 48.691406 238.109375 " fill-opacity="1" fill-rule="nonzero"/><g clip-path="url(#a50eea8bc1)"><path fill="#000000" d="M 337.722656 180.027344 L 337.722656 64.234375 C 337.722656 56.828125 331.703125 50.804688 324.300781 50.804688 L 29.769531 50.804688 C 22.371094 50.804688 16.347656 56.828125 16.347656 64.234375 L 16.347656 243.449219 C 16.347656 250.875 22.371094 256.917969 29.769531 256.917969 L 138.902344 256.917969 L 138.902344 289.4375 L 137.210938 289.4375 C 127.546875 289.4375 119.691406 297.296875 119.691406 306.957031 C 119.691406 316.621094 127.546875 324.484375 137.210938 324.484375 L 216.886719 324.484375 C 226.542969 324.484375 234.398438 316.625 234.398438 306.957031 C 234.398438 297.292969 226.542969 289.4375 216.886719 289.4375 L 215.1875 289.4375 L 215.1875 256.917969 L 237.695312 256.917969 C 248.457031 277.210938 269.777344 291.085938 294.300781 291.085938 C 329.617188 291.085938 358.351562 262.335938 358.351562 227 C 358.351562 208.4375 350.375 191.742188 337.730469 180.027344 Z M 23.933594 64.234375 C 23.933594 61.011719 26.546875 58.394531 29.769531 58.394531 L 324.300781 58.394531 C 327.523438 58.394531 330.140625 61.011719 330.140625 64.234375 L 330.140625 173.914062 C 328.453125 172.769531 326.703125 171.707031 324.90625 170.722656 L 324.90625 76.300781 C 324.90625 69.332031 319.242188 63.667969 312.28125 63.667969 L 41.828125 63.667969 C 34.84375 63.667969 29.164062 69.332031 29.164062 76.300781 L 29.164062 208.128906 L 23.933594 208.128906 Z M 233.085938 208.128906 L 36.746094 208.128906 L 36.746094 76.300781 C 36.746094 73.519531 39.027344 71.253906 41.828125 71.253906 L 312.28125 71.253906 C 315.058594 71.253906 317.324219 73.519531 317.324219 76.300781 L 317.324219 167.265625 C 310.164062 164.492188 302.417969 162.910156 294.296875 162.910156 C 265.539062 162.910156 241.15625 181.972656 233.085938 208.128906 Z M 216.886719 297.023438 C 222.359375 297.023438 226.816406 301.480469 226.816406 306.957031 C 226.816406 312.4375 222.359375 316.898438 216.886719 316.898438 L 137.210938 316.898438 C 131.734375 316.898438 127.273438 312.4375 127.273438 306.957031 C 127.273438 301.480469 131.734375 297.023438 137.210938 297.023438 Z M 146.492188 289.4375 L 146.492188 256.917969 L 207.601562 256.917969 L 207.601562 289.4375 Z M 211.472656 249.328125 C 211.445312 249.328125 211.421875 249.3125 211.398438 249.3125 L 142.703125 249.3125 C 142.675781 249.3125 142.652344 249.328125 142.632812 249.328125 L 29.769531 249.328125 C 26.546875 249.328125 23.933594 246.691406 23.933594 243.449219 L 23.933594 215.71875 L 231.300781 215.71875 C 230.644531 219.386719 230.242188 223.144531 230.242188 227 C 230.242188 234.859375 231.734375 242.363281 234.335938 249.328125 L 211.46875 249.328125 Z M 294.300781 283.5 C 263.164062 283.5 237.828125 258.152344 237.828125 227 C 237.828125 195.847656 263.164062 170.496094 294.300781 170.496094 C 325.4375 170.496094 350.769531 195.84375 350.769531 227 C 350.769531 258.152344 325.4375 283.5 294.300781 283.5 Z M 294.300781 283.5 " fill-opacity="1" fill-rule="nonzero"/></g><path fill="#000000" d="M 302.574219 268.097656 L 286.019531 268.097656 C 283.929688 268.097656 282.230469 266.398438 282.230469 264.304688 L 282.230469 255.980469 C 279.757812 254.945312 277.429688 253.59375 275.277344 251.933594 L 268.042969 256.113281 C 267.171875 256.613281 266.128906 256.746094 265.167969 256.492188 C 264.195312 256.234375 263.367188 255.597656 262.867188 254.722656 L 254.589844 240.378906 C 253.542969 238.566406 254.164062 236.246094 255.976562 235.199219 L 263.191406 231.027344 C 263.011719 229.679688 262.925781 228.335938 262.925781 227.003906 C 262.925781 225.671875 263.011719 224.324219 263.191406 222.976562 L 255.976562 218.8125 C 255.109375 218.308594 254.472656 217.480469 254.210938 216.511719 C 253.949219 215.539062 254.085938 214.503906 254.589844 213.628906 L 262.867188 199.28125 C 263.371094 198.414062 264.195312 197.777344 265.167969 197.515625 C 266.140625 197.257812 267.171875 197.394531 268.042969 197.894531 L 275.277344 202.070312 C 277.429688 200.414062 279.757812 199.0625 282.230469 198.027344 L 282.230469 189.699219 C 282.230469 187.605469 283.929688 185.90625 286.019531 185.90625 L 302.574219 185.90625 C 304.667969 185.90625 306.367188 187.605469 306.367188 189.699219 L 306.367188 198.027344 C 308.839844 199.058594 311.167969 200.414062 313.320312 202.070312 L 320.550781 197.894531 C 321.421875 197.390625 322.460938 197.257812 323.429688 197.515625 C 324.398438 197.773438 325.230469 198.410156 325.730469 199.28125 L 334.007812 213.628906 C 334.507812 214.503906 334.644531 215.539062 334.386719 216.511719 C 334.128906 217.480469 333.492188 218.3125 332.621094 218.8125 L 325.402344 222.976562 C 325.582031 224.324219 325.667969 225.671875 325.667969 227.003906 C 325.667969 228.335938 325.582031 229.679688 325.402344 231.027344 L 332.621094 235.199219 C 334.433594 236.246094 335.054688 238.566406 334.007812 240.378906 L 325.730469 254.722656 C 325.226562 255.59375 324.398438 256.230469 323.429688 256.492188 C 322.460938 256.757812 321.421875 256.617188 320.550781 256.113281 L 313.320312 251.933594 C 311.167969 253.59375 308.839844 254.945312 306.367188 255.980469 L 306.367188 264.304688 C 306.367188 266.398438 304.667969 268.097656 302.574219 268.097656 Z M 289.8125 260.507812 L 298.78125 260.507812 L 298.78125 253.328125 C 298.78125 251.667969 299.855469 250.207031 301.4375 249.707031 C 304.730469 248.671875 307.730469 246.925781 310.351562 244.523438 C 311.570312 243.398438 313.375 243.203125 314.808594 244.03125 L 321.054688 247.640625 L 325.539062 239.867188 L 319.3125 236.269531 C 317.878906 235.445312 317.144531 233.777344 317.507812 232.164062 C 317.890625 230.433594 318.082031 228.695312 318.082031 227.003906 C 318.082031 225.3125 317.890625 223.574219 317.507812 221.84375 C 317.144531 220.226562 317.878906 218.5625 319.3125 217.734375 L 325.539062 214.140625 L 321.054688 206.367188 L 314.808594 209.972656 C 313.375 210.796875 311.570312 210.601562 310.351562 209.484375 C 307.730469 207.078125 304.730469 205.332031 301.4375 204.296875 C 299.855469 203.800781 298.78125 202.335938 298.78125 200.679688 L 298.78125 193.496094 L 289.8125 193.496094 L 289.8125 200.679688 C 289.8125 202.335938 288.734375 203.800781 287.160156 204.296875 C 283.863281 205.332031 280.863281 207.078125 278.246094 209.484375 C 277.019531 210.601562 275.214844 210.800781 273.785156 209.972656 L 267.539062 206.367188 L 263.054688 214.140625 L 269.285156 217.734375 C 270.71875 218.5625 271.449219 220.226562 271.089844 221.84375 C 270.707031 223.574219 270.511719 225.3125 270.511719 227.003906 C 270.511719 228.695312 270.707031 230.433594 271.089844 232.164062 C 271.449219 233.777344 270.71875 235.445312 269.285156 236.269531 L 263.054688 239.867188 L 267.539062 247.640625 L 273.785156 244.03125 C 275.214844 243.203125 277.019531 243.398438 278.246094 244.523438 C 280.863281 246.925781 283.863281 248.671875 287.160156 249.707031 C 288.738281 250.207031 289.8125 251.671875 289.8125 253.328125 Z M 294.296875 242.164062 C 285.941406 242.164062 279.144531 235.359375 279.144531 227 C 279.144531 218.636719 285.941406 211.835938 294.296875 211.835938 C 302.65625 211.835938 309.453125 218.636719 309.453125 227 C 309.453125 235.359375 302.65625 242.164062 294.296875 242.164062 Z M 294.296875 219.421875 C 290.125 219.421875 286.726562 222.824219 286.726562 227 C 286.726562 231.175781 290.125 234.574219 294.296875 234.574219 C 298.472656 234.574219 301.871094 231.175781 301.871094 227 C 301.871094 222.824219 298.472656 219.421875 294.296875 219.421875 Z M 294.296875 219.421875 " fill-opacity="1" fill-rule="nonzero"/><path fill="#000000" d="M 101.910156 170.496094 L 85.351562 170.496094 C 83.257812 170.496094 81.558594 168.796875 81.558594 166.703125 L 81.558594 158.378906 C 79.089844 157.34375 76.761719 155.992188 74.609375 154.335938 L 67.378906 158.511719 C 65.558594 159.554688 63.246094 158.9375 62.199219 157.125 L 53.921875 142.78125 C 52.875 140.964844 53.5 138.644531 55.3125 137.597656 L 62.527344 133.429688 C 62.347656 132.078125 62.257812 130.730469 62.257812 129.402344 C 62.257812 128.074219 62.347656 126.730469 62.527344 125.378906 L 55.3125 121.207031 C 54.441406 120.703125 53.804688 119.878906 53.542969 118.90625 C 53.28125 117.933594 53.417969 116.898438 53.921875 116.027344 L 62.199219 101.679688 C 62.703125 100.808594 63.53125 100.171875 64.5 99.910156 C 65.464844 99.644531 66.503906 99.785156 67.378906 100.289062 L 74.609375 104.46875 C 76.765625 102.808594 79.089844 101.457031 81.558594 100.421875 L 81.558594 92.097656 C 81.558594 90 83.257812 88.300781 85.351562 88.300781 L 101.910156 88.300781 C 104.003906 88.300781 105.699219 90 105.699219 92.097656 L 105.699219 100.421875 C 108.171875 101.453125 110.496094 102.808594 112.652344 104.46875 L 119.882812 100.289062 C 120.753906 99.785156 121.792969 99.648438 122.757812 99.910156 C 123.730469 100.167969 124.558594 100.804688 125.0625 101.679688 L 133.335938 116.027344 C 133.839844 116.898438 133.976562 117.933594 133.71875 118.90625 C 133.460938 119.878906 132.820312 120.707031 131.949219 121.207031 L 124.734375 125.378906 C 124.914062 126.730469 125.003906 128.070312 125.003906 129.402344 C 125.003906 130.734375 124.914062 132.078125 124.734375 133.429688 L 131.949219 137.597656 C 133.765625 138.644531 134.382812 140.964844 133.335938 142.78125 L 125.0625 157.125 C 124.011719 158.9375 121.699219 159.554688 119.882812 158.511719 L 112.652344 154.335938 C 110.496094 155.992188 108.171875 157.34375 105.699219 158.378906 L 105.699219 166.703125 C 105.699219 168.796875 104.003906 170.496094 101.910156 170.496094 Z M 89.144531 162.910156 L 98.117188 162.910156 L 98.117188 155.726562 C 98.117188 154.070312 99.191406 152.605469 100.773438 152.109375 C 104.066406 151.074219 107.066406 149.328125 109.6875 146.921875 C 110.90625 145.800781 112.710938 145.601562 114.144531 146.433594 L 120.390625 150.039062 L 124.875 142.265625 L 118.644531 138.671875 C 117.210938 137.84375 116.484375 136.183594 116.835938 134.566406 C 117.222656 132.828125 117.417969 131.085938 117.417969 129.402344 C 117.417969 127.71875 117.222656 125.976562 116.835938 124.238281 C 116.480469 122.625 117.210938 120.960938 118.644531 120.136719 L 124.875 116.539062 L 120.390625 108.765625 L 114.144531 112.375 C 112.710938 113.199219 110.90625 113.003906 109.6875 111.882812 C 107.066406 109.480469 104.066406 107.734375 100.773438 106.699219 C 99.191406 106.199219 98.117188 104.738281 98.117188 103.078125 L 98.117188 95.898438 L 89.144531 95.898438 L 89.144531 103.078125 C 89.144531 104.738281 88.066406 106.199219 86.488281 106.699219 C 83.195312 107.730469 80.195312 109.476562 77.574219 111.882812 C 76.351562 113.007812 74.546875 113.199219 73.117188 112.375 L 66.871094 108.765625 L 62.386719 116.539062 L 68.617188 120.136719 C 70.050781 120.960938 70.777344 122.625 70.425781 124.238281 C 70.039062 125.976562 69.84375 127.71875 69.84375 129.402344 C 69.84375 131.085938 70.039062 132.828125 70.425781 134.566406 C 70.78125 136.183594 70.050781 137.84375 68.617188 138.671875 L 62.386719 142.265625 L 66.871094 150.039062 L 73.117188 146.433594 C 74.546875 145.609375 76.355469 145.800781 77.574219 146.921875 C 80.195312 149.328125 83.195312 151.074219 86.488281 152.109375 C 88.070312 152.605469 89.144531 154.074219 89.144531 155.726562 Z M 93.628906 144.5625 C 85.273438 144.5625 78.472656 137.761719 78.472656 129.398438 C 78.472656 121.039062 85.273438 114.234375 93.628906 114.234375 C 101.984375 114.234375 108.789062 121.039062 108.789062 129.398438 C 108.789062 137.761719 101.988281 144.5625 93.628906 144.5625 Z M 93.628906 121.824219 C 89.453125 121.824219 86.058594 125.222656 86.058594 129.398438 C 86.058594 133.574219 89.453125 136.976562 93.628906 136.976562 C 97.804688 136.976562 101.203125 133.574219 101.203125 129.398438 C 101.203125 125.222656 97.808594 121.824219 93.628906 121.824219 Z M 93.628906 121.824219 " fill-opacity="1" fill-rule="nonzero"/><path fill="#000000" d="M 168.675781 196.503906 C 167.214844 196.503906 165.824219 195.652344 165.199219 194.230469 L 163.019531 189.25 C 161.40625 189.238281 159.8125 189.066406 158.257812 188.734375 L 155.042969 193.097656 C 153.804688 194.789062 151.433594 195.15625 149.742188 193.90625 L 139.988281 186.726562 C 139.179688 186.128906 138.636719 185.234375 138.488281 184.242188 C 138.335938 183.246094 138.585938 182.234375 139.179688 181.421875 L 142.390625 177.054688 C 141.609375 175.664062 140.972656 174.195312 140.484375 172.660156 L 135.082031 172.054688 C 133 171.824219 131.503906 169.949219 131.734375 167.867188 L 133.074219 155.824219 C 133.183594 154.824219 133.6875 153.910156 134.472656 153.285156 C 135.257812 152.660156 136.253906 152.351562 137.257812 152.476562 L 142.644531 153.074219 C 143.054688 152.378906 143.5 151.707031 143.96875 151.070312 C 144.441406 150.429688 144.945312 149.8125 145.484375 149.214844 L 143.308594 144.238281 C 142.90625 143.316406 142.886719 142.273438 143.25 141.339844 C 143.617188 140.402344 144.339844 139.644531 145.257812 139.242188 L 156.351562 134.382812 C 158.273438 133.546875 160.507812 134.421875 161.347656 136.339844 L 163.527344 141.320312 C 165.136719 141.332031 166.726562 141.5 168.289062 141.835938 L 171.5 137.46875 C 172.09375 136.660156 172.988281 136.117188 173.984375 135.964844 C 174.964844 135.816406 175.988281 136.066406 176.800781 136.660156 L 186.554688 143.84375 C 187.363281 144.4375 187.90625 145.332031 188.058594 146.328125 C 188.210938 147.320312 187.960938 148.332031 187.363281 149.144531 L 184.152344 153.511719 C 184.933594 154.902344 185.570312 156.367188 186.058594 157.90625 L 191.460938 158.507812 C 192.464844 158.617188 193.378906 159.121094 194.003906 159.90625 C 194.632812 160.695312 194.921875 161.695312 194.8125 162.695312 L 193.472656 174.738281 C 193.242188 176.820312 191.347656 178.335938 189.285156 178.085938 L 183.894531 177.488281 C 183.488281 178.183594 183.046875 178.851562 182.578125 179.492188 C 182.578125 179.492188 182.578125 179.492188 182.578125 179.496094 C 182.109375 180.132812 181.601562 180.753906 181.0625 181.351562 L 183.238281 186.320312 C 184.082031 188.238281 183.203125 190.476562 181.285156 191.316406 L 170.195312 196.179688 C 169.699219 196.394531 169.183594 196.5 168.675781 196.5 Z M 165.445312 181.535156 C 166.9375 181.535156 168.308594 182.417969 168.917969 183.808594 L 170.628906 187.707031 L 174.777344 185.890625 L 173.074219 182.003906 C 172.410156 180.484375 172.804688 178.714844 174.050781 177.625 C 174.96875 176.824219 175.789062 175.941406 176.476562 175.003906 C 177.171875 174.058594 177.769531 173.019531 178.265625 171.898438 C 178.929688 170.386719 180.515625 169.480469 182.152344 169.664062 L 186.367188 170.132812 L 186.867188 165.628906 L 182.636719 165.160156 C 180.992188 164.976562 179.652344 163.746094 179.332031 162.121094 C 178.859375 159.714844 177.910156 157.523438 176.503906 155.601562 C 175.527344 154.261719 175.53125 152.445312 176.507812 151.109375 L 179.019531 147.703125 L 175.371094 145.019531 L 172.863281 148.429688 C 171.882812 149.765625 170.144531 150.300781 168.582031 149.765625 C 166.332031 148.992188 163.957031 148.738281 161.519531 149.003906 C 159.875 149.164062 158.300781 148.273438 157.636719 146.753906 L 155.933594 142.851562 L 151.785156 144.667969 L 153.484375 148.558594 C 154.148438 150.070312 153.753906 151.84375 152.511719 152.933594 C 151.585938 153.746094 150.773438 154.632812 150.082031 155.5625 C 149.390625 156.5 148.792969 157.539062 148.296875 158.667969 C 147.625 160.179688 146.09375 161.101562 144.410156 160.902344 L 140.191406 160.433594 L 139.691406 164.933594 L 143.925781 165.410156 C 145.570312 165.589844 146.902344 166.824219 147.226562 168.449219 C 147.699219 170.851562 148.648438 173.046875 150.054688 174.964844 C 151.03125 176.304688 151.03125 178.121094 150.054688 179.457031 L 147.542969 182.863281 L 151.191406 185.550781 L 153.699219 182.140625 C 154.679688 180.804688 156.421875 180.265625 157.984375 180.796875 C 160.226562 181.570312 162.601562 181.820312 165.039062 181.558594 C 165.175781 181.542969 165.3125 181.535156 165.449219 181.535156 Z M 179.527344 177.246094 Z M 163.25 177.398438 C 160.691406 177.398438 158.203125 176.585938 156.101562 175.039062 C 150.730469 171.082031 149.574219 163.480469 153.523438 158.105469 C 157.484375 152.726562 165.074219 151.578125 170.449219 155.527344 C 173.054688 157.441406 174.757812 160.261719 175.242188 163.460938 C 175.726562 166.65625 174.941406 169.855469 173.023438 172.460938 C 171.109375 175.066406 168.296875 176.769531 165.101562 177.257812 C 164.480469 177.351562 163.863281 177.398438 163.253906 177.398438 Z M 160.59375 168.925781 C 161.566406 169.640625 162.753906 169.925781 163.953125 169.753906 C 165.148438 169.570312 166.199219 168.9375 166.917969 167.960938 C 167.632812 166.988281 167.929688 165.792969 167.746094 164.601562 C 167.5625 163.40625 166.929688 162.355469 165.957031 161.636719 C 163.945312 160.15625 161.113281 160.585938 159.636719 162.597656 C 158.160156 164.605469 158.59375 167.441406 160.597656 168.921875 Z M 160.59375 168.925781 " fill-opacity="1" fill-rule="nonzero"/></svg>