<svg xmlns="http://www.w3.org/2000/svg" xmlns:xlink="http://www.w3.org/1999/xlink" width="500" zoomAndPan="magnify" viewBox="0 0 375 374.999991" height="500" preserveAspectRatio="xMidYMid meet" version="1.0"><defs><clipPath id="6a04e2ae24"><path d="M 10 58 L 365.324219 58 L 365.324219 335.917969 L 10 335.917969 Z M 10 58 " clip-rule="nonzero"/></clipPath></defs><g clip-path="url(#6a04e2ae24)"><path fill="#000000" d="M 354.871094 127.730469 L 298.277344 127.730469 L 298.277344 101.179688 C 298.277344 92.386719 291.167969 85.238281 282.425781 85.238281 L 279.367188 85.238281 L 279.367188 72.789062 C 279.367188 66.03125 273.566406 58.652344 266.257812 58.507812 C 266.214844 58.507812 266.183594 58.484375 266.140625 58.484375 L 266.042969 58.484375 C 130.414062 58.484375 184.902344 58.484375 42.636719 58.484375 C 35.332031 58.484375 29.519531 66.257812 29.519531 72.789062 L 29.519531 85.238281 L 26.460938 85.238281 C 17.660156 85.238281 10.503906 92.386719 10.503906 101.179688 L 10.503906 256.230469 C 10.503906 265.84375 18.59375 271.953125 26.460938 271.953125 L 80.855469 271.953125 C 82.101562 279.882812 88.929688 285.988281 97.210938 285.988281 L 125.082031 285.988281 L 125.082031 322.695312 L 95.046875 322.695312 C 91.480469 322.695312 88.582031 325.589844 88.582031 329.152344 C 88.582031 332.714844 91.480469 335.613281 95.046875 335.613281 L 213.785156 335.613281 C 217.351562 335.613281 220.253906 332.714844 220.253906 329.152344 C 220.253906 325.589844 217.351562 322.695312 213.785156 322.695312 L 183.75 322.695312 L 183.75 285.988281 L 211.621094 285.988281 C 219.902344 285.988281 226.730469 279.882812 227.976562 271.953125 L 282.425781 271.953125 C 291.167969 271.953125 298.277344 264.902344 298.277344 256.230469 L 298.277344 181.257812 L 321.933594 181.257812 L 316.253906 208.683594 C 315.808594 210.789062 317.894531 212.578125 319.949219 211.773438 L 327.53125 208.726562 L 330.851562 220.613281 C 331.277344 222.144531 332.894531 222.960938 334.351562 222.46875 L 350.585938 217.003906 C 351.96875 216.539062 352.742188 215.070312 352.339844 213.671875 L 349.222656 202.71875 L 356.785156 200.144531 C 358.726562 199.480469 359.273438 197.015625 357.804688 195.597656 L 342.964844 181.257812 L 354.871094 181.257812 C 360.964844 181.257812 365.742188 174.679688 365.742188 166.277344 L 365.742188 142.5 C 365.742188 134.21875 360.964844 127.730469 354.871094 127.730469 Z M 292.8125 101.179688 L 292.8125 127.730469 L 279.253906 127.730469 L 279.253906 90.695312 L 282.425781 90.695312 C 288.054688 90.695312 292.8125 95.496094 292.8125 101.179688 Z M 193.898438 76.71875 C 193.898438 78.246094 192.695312 79.449219 191.167969 79.449219 L 143.734375 79.449219 C 142.203125 79.449219 141 78.246094 141 76.71875 C 141 75.191406 142.203125 73.988281 143.734375 73.988281 L 191.167969 73.988281 C 192.695312 73.988281 193.898438 75.191406 193.898438 76.71875 Z M 127.339844 76.71875 C 127.339844 79.996094 124.714844 82.726562 121.328125 82.726562 C 118.050781 82.726562 115.316406 79.996094 115.316406 76.71875 C 115.316406 73.445312 118.050781 70.714844 121.328125 70.714844 C 124.714844 70.714844 127.339844 73.445312 127.339844 76.71875 Z M 178.285156 322.695312 L 130.546875 322.695312 L 130.546875 285.988281 L 178.285156 285.988281 Z M 292.8125 256.230469 C 292.8125 261.890625 288.152344 266.496094 282.425781 266.496094 L 26.460938 266.496094 C 21.472656 266.496094 15.96875 262.667969 15.96875 256.230469 L 15.96875 101.179688 C 15.96875 95.398438 20.675781 90.695312 26.460938 90.695312 L 29.523438 90.695312 L 29.523438 153.808594 C 29.523438 155.316406 30.746094 156.535156 32.253906 156.535156 C 33.765625 156.535156 34.988281 155.316406 34.988281 153.808594 L 34.988281 90.585938 L 273.789062 90.585938 L 273.789062 127.730469 L 194.851562 127.730469 C 188.757812 127.730469 183.980469 134.21875 183.980469 142.5 L 183.980469 166.277344 C 183.980469 174.679688 188.757812 181.257812 194.851562 181.257812 L 241.109375 181.257812 L 247.707031 198.25 C 249.65625 203.304688 256.863281 203.359375 258.855469 198.21875 L 265.285156 181.257812 L 273.789062 181.257812 L 273.789062 233.84375 C 273.789062 236.855469 271.390625 239.304688 268.4375 239.304688 L 40.339844 239.304688 C 37.390625 239.304688 34.988281 236.855469 34.988281 233.84375 L 34.988281 176.519531 C 34.988281 175.011719 33.765625 173.789062 32.253906 173.789062 C 30.746094 173.789062 29.523438 175.011719 29.523438 176.519531 L 29.523438 233.84375 C 29.523438 239.863281 34.375 244.765625 40.339844 244.765625 L 268.4375 244.765625 C 274.40625 244.765625 279.253906 239.863281 279.253906 233.84375 L 279.253906 181.257812 L 292.8125 181.257812 Z M 360.277344 166.277344 C 360.277344 171.890625 357.425781 175.800781 354.871094 175.800781 L 337.3125 175.800781 L 329.007812 167.78125 C 327.410156 166.253906 324.851562 167.140625 324.4375 169.1875 L 323.066406 175.800781 C 320.894531 175.800781 262.277344 175.800781 263.402344 175.800781 C 262.265625 175.800781 261.25 176.503906 260.84375 177.5625 L 253.742188 196.289062 C 252.648438 196.28125 251.707031 196.277344 252.800781 196.285156 L 245.527344 177.542969 C 245.121094 176.492188 244.109375 175.800781 242.984375 175.800781 L 194.851562 175.800781 C 192.296875 175.800781 189.445312 171.890625 189.445312 166.277344 L 189.445312 142.5 C 189.445312 137.011719 192.296875 133.191406 194.851562 133.191406 L 354.871094 133.191406 C 357.425781 133.191406 360.277344 137.011719 360.277344 142.5 Z M 360.277344 166.277344 " fill-opacity="1" fill-rule="nonzero"/></g><path fill="#000000" d="M 234.890625 109.867188 L 260.160156 109.867188 C 261.671875 109.867188 262.894531 108.648438 262.894531 107.140625 C 262.894531 105.628906 261.671875 104.410156 260.160156 104.410156 L 234.890625 104.410156 C 233.382812 104.410156 232.160156 105.628906 232.160156 107.140625 C 232.160156 108.648438 233.382812 109.867188 234.890625 109.867188 Z M 234.890625 109.867188 " fill-opacity="1" fill-rule="nonzero"/><path fill="#000000" d="M 88.246094 143.101562 C 88.253906 143.101562 88.257812 143.101562 88.257812 143.101562 C 97.5 143.09375 105.148438 135.023438 105.304688 125.113281 C 105.378906 120.117188 103.492188 115.296875 100.136719 111.894531 C 97.0625 108.777344 93.019531 107.058594 88.742188 107.058594 C 88.742188 107.058594 88.738281 107.058594 88.734375 107.058594 C 79.496094 107.070312 71.847656 115.140625 71.691406 125.054688 C 71.613281 130.042969 73.496094 134.859375 76.847656 138.261719 C 79.925781 141.382812 83.976562 143.101562 88.246094 143.101562 Z M 88.738281 112.519531 C 88.742188 112.519531 88.742188 112.519531 88.75 112.519531 C 91.539062 112.519531 94.203125 113.660156 96.246094 115.730469 C 98.585938 118.097656 99.890625 121.488281 99.839844 125.027344 C 99.726562 131.980469 94.535156 137.636719 88.257812 137.640625 C 88.253906 137.640625 88.253906 137.640625 88.246094 137.640625 C 85.449219 137.640625 82.789062 136.5 80.742188 134.425781 C 78.40625 132.058594 77.097656 128.671875 77.15625 125.140625 C 77.269531 118.1875 82.460938 112.53125 88.738281 112.519531 Z M 88.738281 112.519531 " fill-opacity="1" fill-rule="nonzero"/><path fill="#000000" d="M 66.191406 169.550781 C 72.945312 169.808594 79.820312 169.933594 86.773438 169.933594 C 94.144531 169.933594 101.597656 169.789062 109.082031 169.503906 C 111.703125 169.40625 113.824219 167.390625 114.023438 164.816406 C 114.667969 156.328125 112.378906 149.136719 107.222656 143.429688 C 105.597656 141.609375 102.84375 141.28125 100.707031 142.636719 C 92.027344 148.128906 83.503906 148.117188 74.671875 142.605469 C 72.59375 141.308594 69.910156 141.609375 68.292969 143.3125 C 63.351562 148.535156 60.988281 155.710938 61.265625 164.628906 C 61.34375 167.285156 63.507812 169.445312 66.191406 169.550781 Z M 71.988281 147.367188 C 82.5625 153.871094 93.203125 153.839844 103.164062 147.082031 C 107.339844 151.707031 109.109375 157.367188 108.878906 164.042969 C 94.480469 164.601562 80.199219 164.613281 66.730469 164.464844 C 66.5 157.117188 68.21875 151.519531 71.988281 147.367188 Z M 71.988281 147.367188 " fill-opacity="1" fill-rule="nonzero"/><path fill="#000000" d="M 60.621094 192.753906 L 121.359375 192.753906 C 122.871094 192.753906 124.09375 191.535156 124.09375 190.023438 C 124.09375 188.515625 122.871094 187.292969 121.359375 187.292969 L 60.621094 187.292969 C 59.109375 187.292969 57.886719 188.515625 57.886719 190.023438 C 57.886719 191.535156 59.109375 192.753906 60.621094 192.753906 Z M 60.621094 192.753906 " fill-opacity="1" fill-rule="nonzero"/><path fill="#000000" d="M 60.621094 211.066406 L 95.355469 211.066406 C 96.867188 211.066406 98.089844 209.847656 98.089844 208.339844 C 98.089844 206.828125 96.867188 205.609375 95.355469 205.609375 L 60.621094 205.609375 C 59.109375 205.609375 57.886719 206.828125 57.886719 208.339844 C 57.886719 209.847656 59.109375 211.066406 60.621094 211.066406 Z M 60.621094 211.066406 " fill-opacity="1" fill-rule="nonzero"/><path fill="#000000" d="M 247.253906 143.679688 C 245.832031 144.632812 245.796875 146.5625 241.609375 158.148438 C 237.117188 145.597656 237.351562 144.703125 236.117188 143.679688 C 235.191406 142.929688 233.5 142.960938 232.609375 143.65625 C 232.164062 144.011719 231.828125 144.554688 231.589844 145.289062 L 227.15625 157.921875 L 222.898438 145.886719 C 222.335938 144.152344 221.597656 143.128906 219.78125 143.128906 C 217.308594 143.128906 216.058594 144.945312 217.058594 147.628906 L 223.160156 163.652344 C 223.832031 165.414062 224.917969 166.449219 226.835938 166.449219 C 228.707031 166.449219 229.835938 165.34375 230.472656 163.609375 L 234.140625 153.253906 C 237.683594 162.453125 237.691406 164.503906 239.40625 165.761719 C 240.695312 166.71875 242.609375 166.648438 243.816406 165.761719 C 245.355469 164.625 245.0625 163.699219 251.320312 147.628906 C 252.816406 143.859375 249.652344 142.097656 247.253906 143.679688 Z M 247.253906 143.679688 " fill-opacity="1" fill-rule="nonzero"/><path fill="#000000" d="M 286.367188 143.679688 C 284.941406 144.632812 284.910156 146.5625 280.722656 158.148438 L 276.285156 145.289062 C 275.78125 143.90625 274.945312 143.128906 273.472656 143.128906 C 271.96875 143.128906 271.152344 143.886719 270.703125 145.289062 L 266.269531 157.921875 L 262.011719 145.886719 C 261.449219 144.152344 260.710938 143.128906 258.894531 143.128906 C 257.085938 143.128906 256.089844 144.058594 255.867188 145.359375 C 255.75 146.015625 255.851562 146.773438 256.171875 147.628906 C 262.308594 163.238281 262.160156 164.617188 263.738281 165.789062 C 264.917969 166.644531 266.90625 166.722656 268.152344 165.742188 C 269.726562 164.515625 269.640625 162.910156 273.253906 153.253906 L 277.023438 163.652344 C 277.699219 165.375 278.875 166.449219 280.699219 166.449219 C 282.558594 166.449219 283.730469 165.421875 284.375 163.652344 L 290.433594 147.628906 C 290.960938 146.300781 291.058594 144.761719 290.023438 143.777344 C 289.261719 143.042969 287.664062 142.824219 286.367188 143.679688 Z M 286.367188 143.679688 " fill-opacity="1" fill-rule="nonzero"/><path fill="#000000" d="M 325.472656 143.679688 C 324.050781 144.632812 324.015625 146.5625 319.828125 158.148438 C 315.335938 145.597656 315.570312 144.703125 314.335938 143.679688 C 313.410156 142.929688 311.71875 142.960938 310.828125 143.65625 C 309.71875 144.53125 309.777344 145.683594 305.375 157.921875 C 300.582031 144.722656 300.921875 143.128906 298 143.128906 C 295.527344 143.128906 294.277344 144.945312 295.277344 147.628906 C 301.417969 163.238281 301.269531 164.617188 302.847656 165.789062 C 303.453125 166.230469 304.191406 166.449219 305.054688 166.449219 C 306.925781 166.449219 308.054688 165.34375 308.691406 163.609375 L 312.359375 153.253906 C 315.902344 162.453125 315.910156 164.503906 317.625 165.761719 C 319.238281 166.960938 322.3125 166.855469 323.484375 163.652344 C 329.613281 147.085938 330.078125 147.082031 329.910156 145.429688 C 329.648438 143.085938 327.15625 142.570312 325.472656 143.679688 Z M 325.472656 143.679688 " fill-opacity="1" fill-rule="nonzero"/><path fill="#000000" d="M 295.996094 77.691406 L 324.515625 73.4375 C 326.003906 73.21875 327.035156 71.828125 326.808594 70.335938 C 326.585938 68.84375 325.1875 67.855469 323.703125 68.042969 L 295.183594 72.296875 C 293.695312 72.515625 292.667969 73.90625 292.890625 75.398438 C 293.117188 76.90625 294.519531 77.917969 295.996094 77.691406 Z M 295.996094 77.691406 " fill-opacity="1" fill-rule="nonzero"/><path fill="#000000" d="M 305.660156 39.914062 C 304.539062 38.917969 302.8125 39.011719 301.804688 40.140625 L 288.164062 55.460938 C 287.164062 56.585938 287.261719 58.3125 288.390625 59.316406 C 289.511719 60.304688 291.230469 60.222656 292.25 59.085938 L 305.890625 43.769531 C 306.890625 42.644531 306.792969 40.914062 305.660156 39.914062 Z M 305.660156 39.914062 " fill-opacity="1" fill-rule="nonzero"/></svg>